PathFileType	4	(X/Y/Z)	C:/Users/opensim2020/Desktop/walking_exp_matlab/subject02_walking10_straight_03.trc	
DataRate	CameraRate	NumFrames	NumMarkers	Units	OrigDataRate	OrigDataStartFrame	OrigNumFrames	
100.00	100.00	7	43	mm	100.00	2358	270	
Frame#	Time	LFHD			RFHD			LBHD			RBHD			C7			T10			CLAV			STRN			RBAK			LSHO			LUPA			LELB			LFRM			LWRA			LWRB			LFIN			RSHO			RUPA			RELB			RFRM			RWRA			RWRB			RFIN			LASI			RASI			LPSI			RPSI			LTHI			LKNE			LTIB			LANK			LHEE			LTOE			RTHI			RKNE			RTIB			RANK			RHEE			RTOE			*39			*40			*41			*42			
		X1	Y1	Z1	X2	Y2	Z2	X3	Y3	Z3	X4	Y4	Z4	X5	Y5	Z5	X6	Y6	Z6	X7	Y7	Z7	X8	Y8	Z8	X9	Y9	Z9	X10	Y10	Z10	X11	Y11	Z11	X12	Y12	Z12	X13	Y13	Z13	X14	Y14	Z14	X15	Y15	Z15	X16	Y16	Z16	X17	Y17	Z17	X18	Y18	Z18	X19	Y19	Z19	X20	Y20	Z20	X21	Y21	Z21	X22	Y22	Z22	X23	Y23	Z23	X24	Y24	Z24	X25	Y25	Z25	X26	Y26	Z26	X27	Y27	Z27	X28	Y28	Z28	X29	Y29	Z29	X30	Y30	Z30	X31	Y31	Z31	X32	Y32	Z32	X33	Y33	Z33	X34	Y34	Z34	X35	Y35	Z35	X36	Y36	Z36	X37	Y37	Z37	X38	Y38	Z38	X39	Y39	Z39	X40	Y40	Z40	X41	Y41	Z41	X42	Y42	Z42	X43	Y43	Z43	

169	1.680	1436.32458	283.91315	1719.26306	1577.52527	289.02383	1687.80273	1427.78857	148.57828	1653.46716	1567.73425	140.50421	1621.03613	1478.87500	93.69995	1505.99036	1472.53882	35.12044	1230.71045	1471.62231	230.10431	1434.65417	1472.07336	277.16748	1261.05664	1527.12109	26.36275	1329.07837	1302.57849	177.17601	1491.38489	1201.84155	208.53745	1302.50061	1174.55957	254.22884	1169.02478	1167.54297	332.96725	1060.58704	1210.82654	442.28384	987.39728	1173.54297	407.30594	963.08447	1172.11096	461.10358	925.41998	1666.82507	154.77039	1456.62354	1736.07483	101.81741	1266.79004	1753.94141	102.68393	1120.96301	1776.68359	124.82216	1003.13068	1764.10205	173.06676	875.66833	1788.36438	121.85529	873.22144	1796.88416	157.06639	810.15997	1330.42749	255.15819	965.86261	1587.26147	275.23825	960.73730	1428.64075	52.56431	1010.32611	1542.34424	54.22498	1009.28113	1292.02783	134.98141	661.77350	1323.71545	63.30050	471.01883	1326.50366	-45.07620	307.93475	1362.51416	-104.02901	90.38285	1414.33862	-144.23044	70.08324	1345.74060	43.26788	31.78202	1679.88208	269.14697	667.24719	1645.58203	340.71933	471.53391	1661.64221	360.85861	286.20087	1638.47986	412.36377	96.98063	1582.36829	404.02350	33.80103	1659.98804	572.63635	87.31818	1536.54846	190.94203	1782.10815	-3357.44629	2845.78833	1034.16919						 
170	1.690	1439.50037	293.66602	1718.53467	1580.57349	298.15442	1686.75220	1430.74097	158.01669	1652.86914	1570.37146	149.60001	1620.18054	1481.60461	103.13931	1504.97595	1475.42285	44.79105	1229.54700	1474.24890	239.48999	1433.80896	1474.34595	286.79190	1260.31201	1529.90771	36.00387	1327.86646	1305.26123	186.20917	1490.53845	1204.67981	216.61145	1301.60999	1177.37744	260.89835	1167.66345	1170.26245	338.80939	1058.59070	1213.36890	447.56921	984.56958	1176.14209	412.42105	960.46338	1174.70703	465.82440	922.21906	1669.49536	164.23724	1455.64246	1738.34399	110.78616	1265.89734	1756.09546	111.28084	1120.15015	1778.96533	133.09570	1002.29565	1766.12585	180.97470	874.49908	1790.20032	129.66591	872.18311	1798.78430	164.62929	809.01770	1332.47876	264.71115	965.10522	1589.46338	286.08771	960.46301	1431.66968	62.58456	1009.34418	1545.30322	64.64610	1008.34351	1293.35925	142.85628	661.81696	1324.66638	70.39583	471.17099	1327.14502	-40.45558	309.87665	1362.20837	-102.83973	93.04718	1414.00061	-143.14030	73.46840	1345.58899	43.41761	31.77131	1681.80225	281.51459	666.88293	1646.79309	350.32175	470.12854	1661.78784	367.25156	283.99625	1637.48535	414.95770	94.07353	1581.82092	405.14832	31.49956	1658.57166	575.12634	82.06619	1539.42383	200.25752	1781.12488	-3357.66040	2845.77734	1034.17249						 
171	1.700	1442.73535	303.04532	1717.41211	1583.66785	307.31479	1685.69226	1433.42383	167.47781	1652.00415	1573.08789	158.67766	1619.27039	1484.53918	112.43154	1504.00195	1478.45691	54.60023	1228.25842	1476.89685	248.89769	1432.99280	1476.89063	296.57126	1259.65125	1532.80688	45.63205	1326.60034	1308.08923	195.17442	1489.72375	1207.80298	224.75496	1300.70044	1180.39307	267.30649	1166.30884	1173.01025	344.16083	1056.56311	1215.85437	452.50287	981.44653	1178.95813	417.22476	957.74243	1177.35327	470.09366	918.79205	1672.02393	173.67830	1454.63782	1741.06384	120.19492	1265.17920	1758.37231	120.07516	1119.17114	1781.08252	141.48251	1001.30951	1768.30603	189.14273	873.45026	1791.96240	137.49937	871.06866	1800.55334	172.33385	807.67407	1334.83167	274.46170	964.31567	1591.85229	297.18677	960.23242	1434.88745	72.97758	1008.34601	1548.45203	75.25539	1007.24768	1294.94666	151.12166	661.25940	1325.56042	77.83536	471.34457	1327.88196	-35.70023	312.10114	1361.92651	-101.47626	95.92145	1413.84082	-142.09924	77.29609	1345.48694	43.62910	31.77788	1683.52197	293.55014	666.22296	1648.12781	359.52997	468.53107	1661.82886	373.18600	281.50876	1636.47266	416.80756	90.81308	1581.22534	405.33951	28.77392	1656.53247	577.19653	75.94812	1542.38745	209.58630	1780.25928	-3360.26392	2845.18018	1033.98511						 
172	1.710	1445.68762	312.33447	1716.25269	1586.69397	316.43942	1684.66565	1436.25977	176.87117	1651.07275	1575.83069	167.87532	1618.31494	1487.55273	121.70875	1502.93213	1481.79456	64.38459	1227.01379	1479.64038	258.44910	1432.11487	1479.41772	306.48859	1258.94128	1535.87329	55.38694	1325.29224	1310.98889	204.15285	1488.84851	1210.90991	232.59740	1299.74463	1183.59607	273.72409	1164.91504	1175.95020	349.43448	1054.26929	1218.38318	457.02698	978.03650	1181.37891	421.17038	954.69452	1180.00256	473.71790	915.09393	1675.04956	183.51657	1453.79126	1743.46228	129.40479	1264.22083	1760.55090	128.86432	1118.14063	1783.32336	150.09937	1000.33795	1770.44922	197.47456	872.30969	1794.23877	145.95930	870.24738	1802.65540	180.48447	806.71442	1337.38684	284.42691	963.57104	1594.37024	308.25696	960.05450	1438.25598	83.47752	1007.27319	1551.84375	86.07230	1006.07843	1296.57031	159.76917	661.10522	1326.52087	85.57668	471.62039	1328.67725	-30.54954	314.21951	1361.62024	-99.98083	99.01926	1413.25269	-140.69046	81.08500	1345.29456	43.88462	31.69166	1684.68909	304.65103	664.95050	1649.95508	368.21982	466.78052	1661.62000	378.86612	279.09210	1636.17163	420.31995	89.03722	1581.19458	406.74011	30.52656	1654.76636	580.77374	67.58340	1545.30017	218.82358	1779.22278	-3360.22998	2845.10693	1034.15369						 
173	1.720	1448.89758	321.95889	1715.87793	1589.79797	325.70065	1684.00403	1439.01135	186.50517	1650.30444	1579.00989	177.26955	1617.69714	1490.64001	130.96857	1501.88757	1485.39490	74.14697	1226.27271	1482.34753	267.98260	1431.38586	1482.16199	316.34891	1258.61169	1539.13318	65.27551	1324.55603	1313.90076	213.00227	1487.96362	1214.16992	240.18233	1298.98645	1186.51587	279.50925	1163.34692	1179.14624	354.25113	1051.75122	1221.04370	461.08682	974.42633	1184.06519	424.73676	951.52808	1182.61877	477.00412	911.17480	1678.06812	193.32555	1452.92371	1746.30627	138.94698	1263.38831	1763.35352	138.13121	1117.52881	1785.50171	158.74254	999.22284	1772.73840	206.00259	871.26544	1796.28589	154.50830	869.25165	1804.68091	188.78764	805.58472	1339.86853	295.11142	962.87402	1596.90295	318.95508	959.84161	1441.79724	93.76273	1006.16779	1555.41223	96.95262	1004.95831	1298.26624	168.83315	660.85730	1327.62915	93.76003	471.92484	1329.57007	-25.13449	316.66357	1361.21252	-98.25274	102.58308	1412.91858	-139.01917	85.70190	1345.02942	43.90471	31.65266	1686.93823	315.70920	664.89209	1652.30994	376.54498	465.77533	1660.44922	385.87491	277.66431	1638.05225	426.57440	89.38708	1582.56665	409.83020	33.10492	1655.25647	587.72510	59.38425	1548.37695	228.13762	1778.60474	-3360.32886	2845.27612	1034.16943						 
174	1.730	1451.99121	331.41113	1715.61584	1593.01270	335.05649	1683.82043	1441.82263	195.90913	1650.01709	1581.57800	186.51611	1617.32153	1493.86755	139.87904	1501.23853	1488.93860	83.95721	1225.91162	1485.15857	277.39178	1431.03381	1484.92529	326.08859	1258.52063	1542.38696	74.96819	1323.96741	1316.73120	221.85071	1487.33777	1217.49377	247.90497	1297.86755	1189.94958	285.47974	1161.81836	1181.91028	358.66226	1049.44971	1223.55554	464.87323	970.52478	1186.93994	428.36536	948.39893	1185.20923	479.72562	907.05627	1680.97754	202.98193	1452.06555	1749.26514	148.62331	1262.62720	1765.72632	147.30444	1116.54834	1788.10352	167.88911	998.49445	1775.00537	214.79097	870.30719	1798.48096	163.22400	868.39343	1806.72302	197.37967	804.60187	1342.56555	305.79752	962.17554	1599.67078	329.64944	959.82251	1445.40723	104.10967	1005.33923	1559.01282	108.18150	1004.38257	1300.00916	178.06807	660.93304	1328.81201	102.51357	472.45593	1330.54102	-19.23642	319.47839	1360.74707	-96.05932	106.52686	1412.56531	-136.57761	90.48044	1344.56897	43.79199	31.68044	1689.21985	325.30246	665.19269	1655.06799	385.63620	466.13898	1662.99023	394.32657	278.24734	1641.61707	433.93893	89.25818	1586.05396	412.02652	35.94733	1654.13818	594.03607	52.88296	1551.47583	237.52477	1778.39795	-3357.45850	2845.84570	1034.27551						 
175	1.740	1455.16296	340.90103	1715.63806	1596.10876	344.35129	1683.77795	1445.06677	205.43669	1650.22119	1584.87610	195.97986	1617.47144	1497.16272	149.40132	1501.08118	1492.13892	93.81767	1225.33569	1488.09277	286.70224	1431.03345	1487.76514	335.87177	1258.71680	1545.53198	84.63628	1323.42334	1319.50916	230.52316	1486.89270	1220.81311	255.27893	1296.83875	1193.78577	291.44757	1160.40515	1185.18445	363.13013	1047.08398	1226.18762	468.14624	966.60077	1189.37341	430.96036	944.96088	1187.79321	481.78226	902.86505	1684.47437	213.09177	1451.64600	1752.60962	158.79259	1262.15405	1768.70886	157.18756	1115.95081	1790.37390	177.03860	997.59552	1777.24683	223.83167	869.57086	1800.66846	172.20322	867.68317	1808.95129	206.18889	803.91217	1345.47241	316.68991	961.58508	1602.57202	340.43692	960.00458	1448.85547	114.76601	1004.64545	1562.63391	119.40553	1004.57532	1302.04871	188.05371	660.85907	1329.81104	112.00592	473.13428	1331.44238	-12.69616	322.60916	1360.37488	-93.51521	110.94969	1412.30334	-133.90869	95.95413	1344.39197	44.01842	31.66776	1691.25879	333.94592	665.32703	1657.58374	395.77209	467.31927	1668.14575	403.94910	279.92798	1643.57898	440.10062	89.22133	1588.18274	414.91199	36.55131	1654.38318	598.06146	47.56632	1554.47217	246.78156	1778.34241	-3357.42603	2845.70166	1034.19702						 
